<?xml version="1.0" standalone="no"?>
<!DOCTYPE svg PUBLIC "-//W3C//DTD SVG 20010904//EN"
 "http://www.w3.org/TR/2001/REC-SVG-20010904/DTD/svg10.dtd">
<svg version="1.0" xmlns="http://www.w3.org/2000/svg"
 width="500.000000pt" height="500.000000pt" viewBox="0 0 500.000000 500.000000"
 preserveAspectRatio="xMidYMid meet">

<g transform="translate(0.000000,500.000000) scale(0.100000,-0.100000)"
fill="#000000" stroke="none">
<path d="M2275 3253 c-16 -8 -41 -25 -54 -37 -42 -38 -80 -146 -51 -146 11 0
14 7 25 55 9 43 83 112 128 120 142 27 265 -123 201 -247 -10 -20 -12 -34 -6
-40 7 -7 15 -1 25 18 48 96 16 208 -77 268 -32 21 -52 26 -101 26 -35 -1 -73
-7 -90 -17z"/>
<path d="M2660 3115 c-16 -42 -31 -67 -47 -74 -23 -11 -77 -104 -66 -115 12
-12 21 -5 33 27 20 48 40 67 72 67 16 0 28 -3 26 -7 -34 -78 -88 -227 -88
-245 0 -13 7 -36 15 -52 30 -56 -18 -162 -110 -244 -52 -46 -59 -49 -99 -45
-52 6 -101 -16 -124 -58 -21 -36 -56 -49 -154 -56 -68 -5 -129 3 -182 23 -24
9 -21 -55 5 -111 24 -50 102 -126 162 -156 143 -74 402 -78 490 -9 22 18 40
20 161 20 139 0 245 12 328 36 26 8 53 14 62 14 26 0 74 49 91 94 14 36 15 50
5 86 -16 59 -52 92 -140 125 -109 41 -112 43 -100 64 9 18 13 18 84 -10 86
-33 123 -31 162 11 18 18 33 25 49 23 42 -9 80 22 109 87 23 50 27 70 22 105
-5 33 -1 55 19 100 27 62 30 75 16 75 -4 0 -20 -27 -34 -60 -15 -33 -31 -60
-37 -60 -5 0 -10 22 -10 50 0 83 -18 95 -303 210 -136 55 -259 100 -273 100
-35 0 -64 -16 -96 -53 -14 -18 -30 -29 -34 -25 -5 6 12 61 34 109 2 4 -3 9
-11 12 -9 3 -21 -15 -37 -58z m351 -86 c305 -123 319 -130 335 -160 8 -15 14
-34 14 -41 0 -7 -27 -80 -61 -161 -51 -121 -67 -151 -90 -163 -15 -8 -35 -14
-44 -14 -9 0 -78 25 -153 56 -75 31 -186 76 -247 101 -60 24 -118 53 -128 65
-28 33 -18 95 37 228 52 127 80 160 130 160 18 0 111 -32 207 -71z m389 -335
c0 -35 -30 -107 -52 -126 -11 -10 -31 -18 -43 -18 l-24 0 23 58 c62 153 57
145 77 126 11 -9 19 -28 19 -40z m-643 -80 c1 -5 -1 -15 -6 -22 -7 -11 -18 -9
-62 9 -30 12 -55 23 -56 24 -1 0 0 10 3 22 l6 21 56 -23 c31 -13 58 -27 59
-31z m123 -118 c129 -53 250 -103 268 -111 78 -35 94 -138 32 -199 -24 -23
-31 -26 -25 -11 42 104 -25 204 -129 192 -22 -3 -68 -12 -101 -21 -33 -9 -101
-18 -151 -19 -89 -1 -92 -1 -127 30 -38 33 -91 49 -130 40 -12 -4 -28 -2 -36
2 -10 7 1 23 45 68 33 32 68 75 79 96 11 20 24 35 30 33 5 -3 116 -48 245
-100z m-5 76 c39 -16 78 -31 88 -35 14 -5 16 -11 8 -26 -10 -18 -14 -18 -101
17 -66 27 -90 41 -90 54 0 24 13 23 95 -10z m-446 -183 c80 -34 96 -106 37
-165 -39 -39 -63 -42 -121 -14 -65 31 -82 87 -45 148 18 29 47 49 73 51 5 1
30 -8 56 -20z m171 -29 c24 -15 7 -19 -25 -5 -23 10 -25 14 -10 14 11 0 27 -3
35 -9z m513 -50 c76 -84 -21 -218 -122 -166 -33 17 -61 62 -61 96 0 36 30 81
63 96 44 19 87 10 120 -26z m-496 9 c69 -17 108 -20 183 -16 52 2 102 8 112
12 15 6 15 3 2 -33 -16 -49 -6 -94 32 -133 l26 -27 -65 -11 c-126 -22 -290 -8
-420 35 l-49 16 35 29 c41 33 61 77 55 119 -3 16 -3 30 -2 30 1 0 42 -9 91
-21z m-367 -25 c0 -9 8 -32 17 -51 13 -29 31 -43 97 -74 45 -21 111 -46 149
-56 37 -10 66 -22 64 -28 -9 -26 -102 -48 -202 -49 -123 0 -214 25 -304 85
-67 45 -94 77 -116 139 l-15 41 58 -8 c64 -9 150 -6 202 6 50 13 50 13 50 -5z"/>
<path d="M2789 2925 c-52 -28 -41 -115 17 -129 68 -17 113 79 58 123 -31 24
-40 25 -75 6z m69 -27 c7 -7 12 -21 12 -33 0 -12 -5 -26 -12 -33 -7 -7 -21
-12 -33 -12 -12 0 -26 5 -33 12 -7 7 -12 21 -12 33 0 12 5 26 12 33 7 7 21 12
33 12 12 0 26 -5 33 -12z"/>
<path d="M3099 2781 c-34 -35 -36 -50 -9 -84 28 -35 53 -41 89 -22 54 27 50
98 -6 124 -35 16 -41 14 -74 -18z m85 -23 c13 -19 14 -25 2 -43 -26 -40 -86
-27 -86 19 0 47 57 63 84 24z"/>
<path d="M2914 2786 c-8 -21 14 -56 42 -66 28 -11 74 6 74 27 0 16 -5 16 -30
1 -25 -16 -54 -1 -58 31 -4 24 -20 28 -28 7z"/>
<path d="M3010 2307 c-14 -7 -31 -25 -40 -40 -13 -24 -13 -30 0 -54 9 -15 27
-34 41 -42 53 -30 115 34 93 96 -12 36 -61 56 -94 40z m62 -34 c22 -20 23 -41
1 -65 -18 -21 -53 -24 -71 -6 -27 27 -3 88 35 88 9 0 25 -7 35 -17z"/>
<path d="M2323 3155 c-32 -14 -53 -41 -53 -69 0 -12 10 -16 38 -16 20 0 60
-11 89 -24 l52 -24 6 27 c16 74 -61 137 -132 106z"/>
<path d="M1705 3031 c-110 -49 -156 -189 -96 -288 34 -55 131 -114 131 -79 0
9 -7 16 -15 16 -22 0 -86 61 -101 97 -31 74 -5 169 58 214 21 16 50 24 89 27
49 4 65 0 103 -22 45 -27 70 -22 38 7 -52 47 -140 59 -207 28z"/>
<path d="M1727 2920 c-45 -36 -46 -100 -1 -144 22 -22 31 -20 42 12 5 15 26
51 45 80 33 49 34 53 17 62 -30 16 -75 12 -103 -10z"/>
<path d="M2302 2858 c-22 -22 -15 -76 12 -93 61 -40 131 40 78 88 -22 20 -73
22 -90 5z m80 -22 c15 -22 8 -47 -17 -58 -30 -14 -55 3 -55 38 0 38 50 52 72
20z"/>
<path d="M2332 2813 c2 -10 10 -18 18 -18 8 0 16 8 18 18 2 12 -3 17 -18 17
-15 0 -20 -5 -18 -17z"/>
<path d="M1917 2702 c-23 -25 -21 -58 3 -82 39 -39 100 -14 100 42 0 51 -69
78 -103 40z m67 -5 c38 -27 -2 -95 -41 -71 -24 15 -28 48 -8 68 20 19 26 20
49 3z"/>
<path d="M1944 2669 c-8 -14 11 -33 25 -25 6 4 11 14 11 22 0 16 -26 19 -36 3z"/>
<path d="M2158 2674 c-42 -22 -32 -74 14 -74 21 0 40 -33 31 -55 -4 -13 -14
-16 -39 -12 -35 6 -42 -1 -22 -21 18 -18 53 -14 72 7 11 12 30 19 48 19 31 -1
58 22 58 49 0 19 -9 16 -29 -8 -12 -15 -23 -20 -38 -15 -30 10 -36 33 -17 66
10 15 14 35 11 44 -8 20 -53 20 -89 0z"/>
</g>
</svg>
