<?xml version="1.0" standalone="no"?>
<!DOCTYPE svg PUBLIC "-//W3C//DTD SVG 20010904//EN"
 "http://www.w3.org/TR/2001/REC-SVG-20010904/DTD/svg10.dtd">
<svg version="1.0" xmlns="http://www.w3.org/2000/svg"
 width="1024.000000pt" height="1024.000000pt" viewBox="0 0 1024.000000 1024.000000"
 preserveAspectRatio="xMidYMid meet">

<g transform="translate(0.000000,1024.000000) scale(0.100000,-0.100000)"
fill="#000000" stroke="none">
<path d="M5980 5923 l0 -103 55 0 55 0 1 83 c0 45 2 91 3 102 2 19 -3 21 -56
20 l-58 0 0 -102z"/>
<path d="M6295 5306 c-127 -40 -204 -144 -205 -277 0 -159 120 -280 280 -282
114 -1 207 57 262 163 18 36 23 60 23 125 0 98 -20 141 -95 209 -78 69 -172
91 -265 62z m155 -126 c55 -28 83 -72 88 -139 4 -67 -18 -114 -68 -148 -115
-79 -262 -2 -262 137 0 128 128 208 242 150z"/>
<path d="M7090 5000 c0 -363 -7 -339 86 -296 30 14 64 40 80 62 l29 37 3 185
c2 102 1 196 -2 208 -15 57 -105 123 -168 124 l-28 0 0 -320z"/>
<path d="M3610 4872 c-63 -31 -67 -125 -7 -163 65 -41 147 2 147 77 0 48 -15
73 -55 90 -43 18 -43 18 -85 -4z"/>
<path d="M4610 4879 c-29 -11 -60 -57 -60 -89 0 -86 110 -129 170 -65 31 33
30 99 -1 131 -28 27 -73 37 -109 23z"/>
<path d="M4075 4663 c-31 -8 -65 -44 -65 -69 0 -29 41 -78 80 -94 l30 -12 0
-94 c0 -60 -4 -94 -11 -94 -19 0 -53 22 -90 57 -40 38 -72 41 -77 7 -4 -25 63
-89 114 -110 56 -23 152 -18 212 12 65 32 111 87 92 109 -18 21 -33 19 -61
-11 -24 -26 -89 -64 -109 -64 -6 0 -10 36 -10 94 l0 94 30 12 c73 30 104 114
54 146 -26 17 -148 28 -189 17z"/>
<path d="M5714 4256 c-3 -7 -4 -33 -2 -57 l3 -44 333 -3 332 -2 0 60 0 60
-330 0 c-273 0 -332 -2 -336 -14z"/>
<path d="M5005 3998 c-52 -19 -165 -98 -138 -98 14 1 245 49 248 52 1 2 5 15
9 31 6 27 6 27 -41 26 -27 0 -61 -5 -78 -11z"/>
<path d="M6990 3710 l0 -303 69 5 c77 6 133 32 188 90 81 84 102 224 50 331
-47 96 -145 163 -254 174 l-53 6 0 -303z"/>
<path d="M5951 3923 c13 -16 26 -31 29 -35 3 -4 6 1 6 11 0 11 -3 19 -7 18 -4
-1 -7 2 -7 7 0 10 -22 26 -36 26 -5 0 1 -12 15 -27z"/>
<path d="M3803 3870 c-30 -12 -39 -33 -52 -128 -14 -96 -6 -252 15 -293 23
-45 62 -50 127 -18 69 35 177 103 177 112 0 5 -9 20 -20 34 -26 33 -27 118 -3
152 16 23 15 25 -5 42 -33 26 -166 97 -193 103 -13 3 -34 1 -46 -4z"/>
<path d="M4360 3824 c-111 -59 -117 -65 -96 -95 23 -34 21 -120 -4 -152 -11
-14 -20 -29 -20 -34 0 -5 45 -35 99 -67 117 -67 158 -72 195 -23 19 26 21 42
21 192 0 150 -2 166 -21 192 -33 44 -73 42 -174 -13z"/>
<path d="M5548 3183 c12 -2 30 -2 40 0 9 3 -1 5 -23 4 -22 0 -30 -2 -17 -4z"/>
<path d="M5618 3183 c6 -2 18 -2 25 0 6 3 1 5 -13 5 -14 0 -19 -2 -12 -5z"/>
<path d="M6996 2868 c-1 -7 -10 -36 -19 -64 -12 -37 -17 -87 -17 -173 l0 -121
65 0 65 0 0 94 c0 90 1 96 26 115 32 25 71 27 102 5 20 -14 22 -23 22 -114 0
-58 4 -101 11 -105 5 -4 37 -4 70 0 l60 7 -3 147 c-3 111 -8 155 -21 184 l-17
37 -170 0 c-128 0 -171 -3 -174 -12z"/>
<path d="M5405 2647 c3 -18 12 -63 19 -102 l12 -70 669 -2 c446 -1 673 1 682
8 12 11 27 76 36 157 l5 42 -715 0 -715 -1 7 -32z"/>
<path d="M5487 2389 c-61 -14 -74 -25 -86 -75 -20 -77 -70 -165 -132 -229 -33
-34 -59 -65 -59 -68 0 -4 160 -7 356 -7 l357 0 -5 68 c-15 211 -222 360 -431
311z"/>
<path d="M6425 2391 c-85 -23 -166 -81 -210 -151 -31 -50 -57 -140 -53 -187
l3 -38 350 0 350 0 -3 60 c-5 119 -86 236 -201 291 -60 28 -178 41 -236 25z"/>
</g>
</svg>
