<svg version="1.1" id="Layer_1" xmlns="http://www.w3.org/2000/svg" xmlns:xlink="http://www.w3.org/1999/xlink" x="0px" y="0px"
	 width="100%" viewBox="0 0 500 500" enable-background="new 0 0 500 500" xml:space="preserve">
<path fill="#000000" opacity="1.000000" stroke="none" 
	d="
M243.000000,501.000000 
	C162.000015,501.000000 81.500038,501.000000 1.000043,501.000000 
	C1.000029,334.333405 1.000029,167.666779 1.000014,1.000133 
	C167.666565,1.000088 334.333130,1.000088 500.999756,1.000044 
	C500.999847,167.666519 500.999847,334.333038 500.999939,500.999786 
	C415.166656,501.000000 329.333344,501.000000 243.000000,501.000000 
M303.976288,331.452423 
	C303.673615,331.236084 303.370911,331.019714 302.792603,330.189819 
	C301.955688,329.396759 301.244812,328.344574 300.256073,327.863647 
	C298.081482,326.806000 295.766510,326.036987 293.508820,325.150146 
	C292.722137,327.441681 291.935425,329.733246 291.002167,332.948608 
	C290.997711,338.570679 291.214630,344.204834 290.908386,349.810425 
	C290.714844,353.352905 292.768341,354.812347 295.415253,354.857086 
	C298.076294,354.902069 300.358093,353.486206 300.076263,349.948761 
	C299.850372,347.113495 300.030609,344.245850 300.030609,340.432343 
	C302.170532,342.945435 303.501678,344.508667 305.126984,346.694641 
	C307.003876,348.897064 308.684509,351.322876 310.835968,353.212677 
	C312.006287,354.240631 314.495911,355.249634 315.467957,354.683411 
	C317.048676,353.762665 318.476532,351.671814 318.868561,349.839417 
	C319.402496,347.343903 318.902222,344.627136 318.976288,341.120544 
	C318.924896,338.737244 318.873505,336.353943 318.969086,333.144653 
	C318.865875,331.852936 318.907104,330.529297 318.629791,329.276093 
	C318.029144,326.561768 316.589325,324.521759 313.454498,325.063568 
	C310.469238,325.579468 309.764038,327.818146 309.981842,330.559326 
	C310.124664,332.356628 310.112122,334.166260 310.018585,336.673462 
	C309.910431,337.342560 309.802277,338.011658 309.694122,338.680756 
	C310.024780,338.197723 310.355469,337.714661 310.686157,337.231628 
	C308.498779,335.806671 306.311432,334.381744 303.998688,332.487640 
	C303.998688,332.487640 303.876251,332.017700 303.976288,331.452423 
M242.693161,354.143219 
	C246.428482,354.097778 250.164108,354.068878 253.899017,354.000946 
	C256.301758,353.957245 259.030823,354.698486 259.077698,350.620270 
	C259.122375,346.736389 256.741760,346.919037 254.126495,346.978607 
	C251.801620,347.031616 249.474106,346.969208 247.034576,346.032288 
	C247.032196,340.546295 247.373322,335.025391 246.821381,329.595245 
	C246.652420,327.932983 244.033310,326.519714 242.536240,324.992432 
	C241.022446,326.510315 238.324097,327.939270 238.202286,329.561646 
	C237.705841,336.173950 237.754425,342.861237 238.182281,349.483398 
	C238.281174,351.014130 240.670990,352.396881 242.693161,354.143219 
M153.211411,203.261337 
	C150.431564,213.310852 149.617935,223.445282 153.076782,233.439880 
	C154.953552,238.862915 156.371246,243.865219 152.505508,249.054916 
	C151.670456,250.175949 152.088715,252.230576 151.199631,254.264954 
	C148.683472,265.198486 150.796494,275.422760 156.089615,285.856140 
	C159.259689,289.649658 162.057968,293.848724 165.669968,297.160187 
	C176.251099,306.860931 189.235214,308.878296 203.922272,308.003571 
	C211.955170,307.945312 219.988068,307.887054 228.923294,307.994049 
	C232.292862,307.937134 235.662430,307.880219 239.955811,307.962891 
	C264.139923,307.971466 288.324066,307.992065 312.508087,307.952209 
	C313.689606,307.950256 314.870270,307.418182 316.886078,307.011902 
	C328.901978,305.847260 338.494934,300.248810 346.756592,290.761383 
	C347.702576,289.488892 348.730652,288.268829 349.581726,286.935760 
	C357.383575,274.715210 359.473846,261.676788 356.210754,247.441330 
	C354.254364,238.906189 349.709930,232.011597 345.021240,224.302139 
	C346.148102,220.517014 347.274963,216.731888 348.401825,212.946762 
	C348.094513,212.622131 347.787170,212.297501 347.479828,211.972870 
	C346.651825,212.659454 345.823792,213.346039 344.251617,213.743927 
	C342.961700,202.634705 337.513824,193.401688 329.469116,186.286148 
	C321.574890,179.303696 311.713654,176.199631 300.826721,176.845627 
	C298.797729,176.966019 295.547302,175.566528 294.739044,173.936813 
	C290.978943,166.355255 284.813416,161.382965 278.069397,156.940338 
	C278.069397,156.940338 278.169922,156.946945 277.971558,156.372894 
	C277.617004,156.283752 277.262421,156.194611 276.258514,155.732895 
	C270.889008,153.809937 265.643433,150.788635 260.127167,150.166107 
	C242.221756,148.145432 225.731033,152.155304 214.081375,166.814682 
	C209.502457,172.576584 204.688644,173.400024 198.488388,173.015915 
	C188.906830,172.422318 179.712296,173.454102 171.451080,180.040878 
	C171.286560,180.319183 171.122040,180.597488 170.249374,180.987732 
	C162.184616,186.335007 156.434464,193.407196 153.211411,203.261337 
M228.840195,343.006683 
	C231.116043,339.299042 233.666992,335.726410 235.574829,331.838196 
	C236.936630,329.062836 236.298996,326.110321 232.893768,325.090027 
	C229.549988,324.088165 227.913834,326.118378 226.912918,329.164459 
	C226.090729,331.666626 224.778625,334.007812 223.268967,337.334045 
	C221.270096,334.265533 220.162445,332.565125 219.004425,330.073700 
	C218.054825,328.389862 217.468552,326.131683 216.029602,325.221313 
	C215.048096,324.600433 212.131561,325.356354 211.416367,326.406616 
	C210.442276,327.837036 210.343399,330.192078 210.610550,332.043701 
	C210.861191,333.780884 212.076324,335.378937 212.967377,337.742584 
	C215.036896,340.496948 217.106415,343.251343 219.029877,346.857697 
	C219.021454,348.007812 218.635468,349.341797 219.086563,350.268127 
	C219.915573,351.970490 220.939423,354.286865 222.420700,354.803833 
	C224.913513,355.673798 226.978516,354.177582 227.312439,351.229248 
	C227.621368,348.501526 227.849518,345.764679 228.840195,343.006683 
M209.011261,336.150970 
	C208.324860,330.172119 205.841125,327.758087 198.290665,325.731384 
	C191.085175,323.797302 185.322327,325.966827 181.985199,331.869843 
	C178.403198,338.206024 179.657166,346.430237 185.232727,351.815979 
	C187.718933,352.844513 190.123581,354.377869 192.708481,354.795380 
	C197.924850,355.637970 202.828278,354.476440 206.354691,350.158600 
	C209.513168,346.291260 211.375549,342.003326 209.011261,336.150970 
M323.022186,338.915009 
	C323.014709,342.398468 322.723480,345.914978 323.124023,349.350861 
	C323.313477,350.975800 324.753265,353.714966 325.753357,353.773224 
	C330.827545,354.068787 336.188202,354.561890 340.987885,353.272003 
	C348.434265,351.270691 351.054840,343.089294 348.028595,333.259827 
	C345.384399,328.256653 340.925537,325.902924 335.604279,325.016968 
	C325.384430,323.315430 322.889343,325.441406 323.013123,335.510651 
	C323.023285,336.339294 323.117767,337.166901 323.022186,338.915009 
M265.176178,332.348083 
	C263.530121,338.011230 261.681824,343.628784 260.387482,349.371216 
	C260.083221,350.721100 261.251801,353.185089 262.463623,353.880493 
	C263.744049,354.615295 266.403992,354.518188 267.559601,353.621887 
	C272.158752,350.054810 276.200348,349.998688 281.239166,353.509613 
	C282.513763,354.397705 285.058167,354.666199 286.356171,353.974854 
	C287.618774,353.302338 288.974884,350.795532 288.649780,349.508453 
	C287.407898,344.592072 285.504608,339.842743 283.798523,334.294128 
	C283.205963,332.853638 282.840546,331.255859 281.974365,330.004822 
	C280.062866,327.244049 278.102966,323.891724 274.019379,325.108276 
	C271.773071,325.777466 269.881622,327.637695 267.284424,329.167114 
	C267.175629,329.726807 267.066803,330.286530 266.428162,331.037994 
	C266.228516,331.346619 266.028900,331.655243 265.176178,332.348083 
M171.549774,353.925995 
	C172.276688,346.990387 173.003586,340.054749 173.743378,332.996185 
	C174.665604,332.996185 175.950150,333.392120 176.602692,332.918091 
	C178.222977,331.740997 179.554871,330.166901 181.002594,328.752258 
	C179.565308,327.500824 178.201874,325.286926 176.677536,325.169922 
	C171.048950,324.738037 165.357391,324.822632 159.712723,325.133850 
	C158.421494,325.205078 156.414551,326.803986 156.194000,327.974365 
	C155.939804,329.323273 156.901886,331.614990 158.059708,332.338135 
	C159.552231,333.270294 161.763031,333.052399 163.992386,333.377655 
	C163.992386,338.902435 163.944122,344.372528 164.007706,349.841309 
	C164.058243,354.188019 166.244736,355.517395 171.549774,353.925995 
z"/>
<path fill="#696773" opacity="1.000000" stroke="none" 
	d="
M344.995758,214.032623 
	C345.823792,213.346039 346.651825,212.659454 347.479828,211.972870 
	C347.787170,212.297501 348.094513,212.622131 348.401825,212.946762 
	C347.274963,216.731888 346.148102,220.517014 344.597321,224.731384 
	C344.201843,228.109604 344.230286,231.058563 344.123901,234.332062 
	C343.665894,235.773575 343.342712,236.890564 342.801392,238.276611 
	C341.052917,241.352234 339.522614,244.158798 337.641846,247.100891 
	C331.942261,249.064209 326.488281,250.375595 321.618988,253.720642 
	C319.648773,255.074112 315.850250,254.328476 313.046326,253.750015 
	C310.161469,253.154861 307.535004,251.390884 304.672699,250.563019 
	C303.475922,250.216888 301.962341,250.966064 300.592804,251.217239 
	C300.583984,251.847015 300.575165,252.476776 300.566345,253.106552 
	C306.062531,255.340668 311.558685,257.574799 317.328247,260.002991 
	C319.381531,261.500824 321.161377,262.804565 322.993622,264.470581 
	C323.986938,268.876007 324.927887,272.919159 325.651764,277.200806 
	C324.894714,278.856903 324.354706,280.274536 323.548492,281.907349 
	C321.147644,283.918945 319.288055,286.611206 316.833282,287.364746 
	C302.193146,291.858795 287.252655,294.553925 271.805389,293.418671 
	C268.731476,293.192749 265.412720,293.017883 262.549622,293.914246 
	C257.225952,295.580994 252.154556,298.053528 246.560455,300.171570 
	C242.201401,300.243103 238.118073,301.038757 234.347839,300.279541 
	C226.157516,298.630280 218.127029,296.187134 209.792969,293.827515 
	C202.965012,289.327179 196.593796,284.859406 193.764557,276.739014 
	C193.490540,275.972839 193.204514,275.491364 192.919968,274.536774 
	C192.871796,271.485229 192.822128,268.906860 193.156494,266.411255 
	C200.996811,270.112457 208.849854,270.407410 216.898468,269.716980 
	C216.948486,270.735535 216.972809,271.316467 216.596786,272.012756 
	C209.510529,272.128082 202.824631,272.128082 196.175018,272.128082 
	C198.640930,294.700073 242.318359,304.357666 258.115692,292.471863 
	C250.851105,289.645386 243.491257,286.666168 236.045258,283.920624 
	C229.831039,281.629211 226.119278,277.481201 225.610733,270.715668 
	C223.241074,271.059937 221.125214,271.367371 219.007401,271.344604 
	C219.003906,270.353973 219.002335,269.693481 219.352753,268.896362 
	C222.306808,267.355530 225.774307,266.577881 227.336166,264.420563 
	C230.920563,259.469696 235.111069,257.068054 241.215347,257.630707 
	C243.032715,257.798187 245.602295,257.707550 246.681458,256.609314 
	C251.279099,251.930466 255.903992,247.141373 259.582245,241.753098 
	C261.462555,238.998642 262.980011,234.180405 261.817627,231.553192 
	C259.582245,226.500778 259.934357,221.987747 261.323608,216.869308 
	C263.920135,210.968384 266.252197,205.306625 268.584290,199.644867 
	C268.329010,199.263611 268.073761,198.882355 267.818512,198.501114 
	C265.723938,199.381882 262.862885,199.699432 261.708221,201.270844 
	C259.811340,203.852432 259.021057,207.247086 257.419800,210.164520 
	C256.340240,208.874496 255.605072,207.718857 255.127106,206.414856 
	C255.575623,205.501450 255.766891,204.736404 256.238190,203.847885 
	C256.669617,203.134628 256.821045,202.544846 257.191345,201.766541 
	C257.601410,201.044098 257.792572,200.510178 258.291260,199.839783 
	C265.192078,196.051224 267.120605,189.410736 269.609619,183.039246 
	C270.625183,183.435883 271.361938,183.744003 272.034454,184.417175 
	C270.705505,188.288223 269.440857,191.794220 267.773987,196.415222 
	C271.998413,192.937241 274.978058,190.484085 278.400513,188.009216 
	C282.801880,188.820297 286.900543,189.251144 290.689362,190.571198 
	C298.129791,193.163544 305.397827,196.250534 313.006531,199.377319 
	C319.216766,201.891083 325.157654,204.160400 331.390686,206.644806 
	C338.812347,210.272781 340.472107,216.321289 340.412323,223.896255 
	C341.940125,220.608383 343.467926,217.320496 344.995758,214.032623 
M292.822052,194.663742 
	C290.666779,193.780945 288.542236,192.811783 286.350525,192.031326 
	C279.383301,189.550278 275.256744,191.378250 272.447784,198.174362 
	C269.525452,205.244858 266.623871,212.324295 263.773590,219.424072 
	C261.560364,224.937012 263.041016,230.008545 268.088928,232.128433 
	C283.425171,238.568970 298.851166,244.800476 314.315308,250.928894 
	C319.033051,252.798492 323.858826,250.623322 325.863739,245.937576 
	C329.135590,238.290695 332.277771,230.583694 335.270355,222.823303 
	C337.754028,216.382462 335.615509,211.843674 329.206818,209.262390 
	C317.322906,204.475784 305.434479,199.700485 292.822052,194.663742 
M253.637405,260.990570 
	C258.774780,260.520203 263.001129,262.270416 266.769379,265.795044 
	C268.070557,267.012115 270.186859,267.826141 271.993378,267.956390 
	C281.705048,268.656616 291.210541,267.654114 300.478302,264.338013 
	C307.571625,261.799957 315.715729,265.991058 317.574768,273.099213 
	C318.291626,275.839996 317.939880,278.860229 318.108154,282.463898 
	C319.304901,281.432739 320.300903,280.885803 320.855560,280.047028 
	C324.975159,273.817169 322.607635,265.598877 315.413086,262.560059 
	C299.177826,255.702698 282.824524,249.123672 266.477051,242.536148 
	C265.466766,242.129028 263.504211,242.145630 262.975891,242.784607 
	C258.195496,248.566193 253.636200,254.530594 248.761795,260.761414 
	C249.988037,260.849976 251.385437,260.950897 253.637405,260.990570 
M292.315552,281.930817 
	C292.047455,278.108582 291.779388,274.286377 291.482971,270.060547 
	C279.498871,272.297791 266.873108,271.478241 254.802155,267.243256 
	C254.063721,270.777679 253.985123,274.278503 252.561310,277.100647 
	C251.102219,279.992706 248.326462,282.220520 246.150604,284.712036 
	C261.440796,291.305511 286.844543,292.949371 296.132324,287.999237 
	C294.976624,286.210358 293.815521,284.413147 292.315552,281.930817 
M250.952560,270.589935 
	C250.847885,264.859192 246.922775,262.630341 242.225616,261.254181 
	C236.616821,259.610962 231.841766,261.876343 229.710999,267.019318 
	C227.728180,271.805267 229.627045,276.789337 234.534012,279.678497 
	C242.626419,284.443207 249.193558,281.132263 250.952560,270.589935 
M294.712189,274.422363 
	C291.978760,281.764099 300.539276,289.497803 307.358643,287.295593 
	C312.039825,285.783905 315.099182,281.909851 315.071503,276.980713 
	C315.043427,271.980164 311.932617,267.985046 307.197083,266.867645 
	C302.083954,265.661194 297.901672,267.988159 294.712189,274.422363 
M337.644653,227.196823 
	C334.878876,233.223221 332.113129,239.249619 329.188141,245.622986 
	C337.178894,245.596603 343.401978,234.665344 339.855896,228.546204 
	C339.546661,228.012558 338.889191,227.680725 337.644653,227.196823 
M287.621399,247.818497 
	C290.087646,248.809006 292.508057,249.957886 295.048187,250.693176 
	C295.806427,250.912659 296.899841,249.974136 297.839691,249.566193 
	C297.422363,248.766373 297.201080,247.522217 296.556335,247.237762 
	C291.843140,245.158325 287.076447,243.185211 282.239502,241.417084 
	C281.515839,241.152573 280.336517,242.134567 279.368011,242.539917 
	C279.860016,243.436432 280.132324,244.748596 280.887268,245.147720 
	C282.781616,246.149200 284.894348,246.737640 287.621399,247.818497 
M273.701996,237.849106 
	C270.994354,236.794174 268.286713,235.739243 264.669373,234.329880 
	C265.877289,241.608383 271.685791,240.423950 275.027618,242.754837 
	C275.436188,242.431671 275.844757,242.108505 276.253357,241.785324 
	C275.631470,240.582474 275.009613,239.379608 273.701996,237.849106 
M255.538345,264.145325 
	C255.837509,264.088867 256.136658,264.032410 256.435822,263.975983 
	C256.139160,263.907684 255.842499,263.839355 255.538345,264.145325 
M261.523163,266.848755 
	C261.638367,266.658875 261.753571,266.469025 261.868774,266.279175 
	C261.725800,266.243744 261.487457,266.141052 261.456696,266.184692 
	C261.334503,266.358032 261.277161,266.577118 261.523163,266.848755 
z"/>
<path fill="#EFBABC" opacity="1.000000" stroke="none" 
	d="
M343.019531,238.007538 
	C343.342712,236.890564 343.665894,235.773575 344.449646,234.445236 
	C345.985504,236.914642 346.936218,239.653580 348.156616,242.266556 
	C355.208221,257.364899 354.470428,271.940521 345.680359,286.184418 
	C344.997009,287.291718 345.931885,289.397644 346.114655,291.039429 
	C338.494934,300.248810 328.901978,305.847260 316.000671,307.049011 
	C295.068909,307.040405 275.022552,306.994659 255.051849,306.598938 
	C260.565643,301.302490 267.217163,300.527130 274.072510,301.138763 
	C288.307007,302.408722 302.283997,301.007111 315.588989,296.007416 
	C319.717865,294.455902 323.552917,290.538849 326.015167,286.730286 
	C327.489716,284.449463 329.849915,280.111969 325.868835,276.962341 
	C324.927887,272.919159 323.986938,268.876007 323.092865,264.132324 
	C326.442535,261.341705 329.492676,258.352295 333.098145,257.339233 
	C341.972137,254.845856 342.447174,247.111679 344.745941,240.456512 
	C344.936523,239.904785 343.630310,238.836060 343.019531,238.007538 
z"/>
<path fill="#9CD4E7" opacity="1.000000" stroke="none" 
	d="
M170.957520,180.875793 
	C171.122040,180.597488 171.286560,180.319183 171.976929,180.215195 
	C174.275604,180.432266 176.470474,181.176819 177.753510,180.405212 
	C186.860886,174.928024 196.536285,176.952393 205.934891,178.431915 
	C210.320221,179.122238 212.091904,177.684158 214.399887,174.595398 
	C217.738480,170.127380 221.181412,165.336105 225.645996,162.201080 
	C233.053864,156.999222 241.750092,154.609238 250.994522,155.394089 
	C250.733658,160.710999 246.659119,162.332031 243.444656,164.910995 
	C240.628113,167.170654 238.459778,170.238251 235.634308,173.039688 
	C231.024933,175.154846 226.786362,177.179276 222.162964,179.047028 
	C219.542908,178.916718 217.118530,178.395432 215.113373,179.087967 
	C211.393616,180.372650 207.653290,181.970230 204.399475,184.150726 
	C198.418137,188.158997 192.783188,192.684174 186.731369,196.984406 
	C186.286987,196.915955 186.115067,196.856979 185.743759,196.624237 
	C185.211533,196.331879 184.878677,196.213257 184.116425,196.090256 
	C172.657730,194.675980 164.876114,199.239075 159.558487,209.004288 
	C158.460800,209.001724 157.728851,209.001328 156.989685,208.668762 
	C156.984818,207.893646 156.987152,207.450668 157.293488,206.815094 
	C158.062714,205.784576 158.729553,204.998642 158.961075,204.100510 
	C160.739334,197.202286 163.561188,190.998016 169.121811,186.162369 
	C170.342804,185.100571 170.376862,182.673920 170.957520,180.875793 
z"/>
<path fill="#DDE3CA" opacity="1.000000" stroke="none" 
	d="
M192.918488,275.009918 
	C193.204514,275.491364 193.490540,275.972839 193.484802,276.817108 
	C192.789734,277.796082 192.386444,278.412201 191.613632,278.959198 
	C185.749252,275.272736 181.305008,278.028564 176.767517,281.100952 
	C169.161514,286.251038 165.628250,286.245575 158.248260,281.139160 
	C157.461624,282.515381 156.699158,283.849304 155.936691,285.183228 
	C150.796494,275.422760 148.683472,265.198486 151.782013,254.325134 
	C154.832947,256.294006 156.280899,256.041992 157.048950,252.673340 
	C157.725693,249.705185 158.997223,246.872635 160.381958,244.060883 
	C164.840088,244.756226 168.922379,245.370880 173.063583,246.343597 
	C174.078827,249.137772 175.035141,251.573883 176.047180,254.365387 
	C178.938324,263.779388 185.854355,269.456024 192.918488,275.009918 
z"/>
<path fill="#EBE5C4" opacity="1.000000" stroke="none" 
	d="
M156.013153,285.519684 
	C156.699158,283.849304 157.461624,282.515381 158.248260,281.139160 
	C165.628250,286.245575 169.161514,286.251038 176.767517,281.100952 
	C181.305008,278.028564 185.749252,275.272736 191.619919,279.379822 
	C191.724609,288.816132 197.532150,295.108704 201.603043,302.192474 
	C202.532227,303.809326 202.556534,305.946198 202.997284,307.843719 
	C189.235214,308.878296 176.251099,306.860931 165.669968,297.160187 
	C162.057968,293.848724 159.259689,289.649658 156.013153,285.519684 
z"/>
<path fill="#ABDBEC" opacity="1.000000" stroke="none" 
	d="
M250.996338,155.015610 
	C241.750092,154.609238 233.053864,156.999222 225.645996,162.201080 
	C221.181412,165.336105 217.738480,170.127380 214.399887,174.595398 
	C212.091904,177.684158 210.320221,179.122238 205.934891,178.431915 
	C196.536285,176.952393 186.860886,174.928024 177.753510,180.405212 
	C176.470474,181.176819 174.275604,180.432266 172.215607,180.133743 
	C179.712296,173.454102 188.906830,172.422318 198.488388,173.015915 
	C204.688644,173.400024 209.502457,172.576584 214.081375,166.814682 
	C225.731033,152.155304 242.221756,148.145432 260.127167,150.166107 
	C265.643433,150.788635 270.889008,153.809937 276.749359,156.118805 
	C277.550110,156.652115 277.860016,156.799530 278.169922,156.946945 
	C278.169922,156.946945 278.069397,156.940338 278.054016,157.321594 
	C278.025360,159.138809 278.012115,160.574753 277.630188,161.991516 
	C274.834900,160.983826 272.408295,159.995285 269.617615,158.937607 
	C263.167816,157.584183 257.082062,156.299896 250.996338,155.015610 
z"/>
<path fill="#D6D6E5" opacity="1.000000" stroke="none" 
	d="
M277.998871,162.010696 
	C278.012115,160.574753 278.025360,159.138809 278.061768,157.271835 
	C284.813416,161.382965 290.978943,166.355255 294.739044,173.936813 
	C295.547302,175.566528 298.797729,176.966019 300.826721,176.845627 
	C311.713654,176.199631 321.574890,179.303696 329.469116,186.286148 
	C337.513824,193.401688 342.961700,202.634705 344.623688,213.888275 
	C343.467926,217.320496 341.940125,220.608383 340.412323,223.896255 
	C340.472107,216.321289 338.812347,210.272781 331.778748,206.460220 
	C332.503174,205.160889 333.627930,204.286179 333.674591,203.357285 
	C333.880676,199.255859 328.168213,191.586197 323.911377,189.667969 
	C317.934418,183.249542 310.133118,182.160461 302.411438,182.187149 
	C296.324249,182.208176 292.430695,179.726151 289.067566,175.202164 
	C287.635040,173.275208 285.725098,171.703186 283.970581,169.635315 
	C281.938965,166.870743 279.968903,164.440720 277.998871,162.010696 
z"/>
<path fill="#E1B2AF" opacity="1.000000" stroke="none" 
	d="
M325.651764,277.200806 
	C329.849915,280.111969 327.489716,284.449463 326.015167,286.730286 
	C323.552917,290.538849 319.717865,294.455902 315.588989,296.007416 
	C302.283997,301.007111 288.307007,302.408722 274.072510,301.138763 
	C267.217163,300.527130 260.565643,301.302490 254.588608,306.612396 
	C249.043793,307.258362 244.037888,307.540863 239.031998,307.823334 
	C235.662430,307.880219 232.292862,307.937134 228.443802,307.555389 
	C226.669708,306.033997 225.421280,304.889587 224.072128,303.879761 
	C219.499374,300.457062 212.453842,300.575836 210.031204,294.068542 
	C218.127029,296.187134 226.157516,298.630280 234.347839,300.279541 
	C238.118073,301.038757 242.201401,300.243103 246.650558,300.519623 
	C249.005280,301.450562 250.984848,302.741302 252.672638,302.433289 
	C256.715088,301.695465 260.555237,299.566711 264.594788,299.155273 
	C272.489990,298.351166 280.525787,298.827667 288.391815,297.863678 
	C297.056091,296.801971 305.743683,295.244781 314.132812,292.880432 
	C319.179871,291.457977 323.818756,288.203735 323.814728,281.692200 
	C324.354706,280.274536 324.894714,278.856903 325.651764,277.200806 
z"/>
<path fill="#F7AE7F" opacity="1.000000" stroke="none" 
	d="
M283.848297,335.031036 
	C285.504608,339.842743 287.407898,344.592072 288.649780,349.508453 
	C288.974884,350.795532 287.618774,353.302338 286.356171,353.974854 
	C285.058167,354.666199 282.513763,354.397705 281.239166,353.509613 
	C276.200348,349.998688 272.158752,350.054810 267.559601,353.621887 
	C266.403992,354.518188 263.744049,354.615295 262.463623,353.880493 
	C261.251801,353.185089 260.083221,350.721100 260.387482,349.371216 
	C261.681824,343.628784 263.530121,338.011230 265.738251,332.021759 
	C266.519562,331.412354 266.738770,331.129303 266.958008,330.846222 
	C267.066803,330.286530 267.175629,329.726807 267.929199,329.083435 
	C270.420929,330.351288 272.267883,331.702820 274.060791,333.276550 
	C274.006775,333.498718 273.860352,333.931946 273.673798,334.100098 
	C273.336731,334.564667 273.186249,334.861145 273.013123,335.544739 
	C272.098877,339.706207 271.207184,343.480560 270.166534,347.885529 
	C273.102081,346.925598 274.791809,346.420380 276.447266,345.820526 
	C278.863708,344.944885 279.971283,343.578033 277.995300,340.839020 
	C279.961395,338.653717 281.904846,336.842377 283.848297,335.031036 
z"/>
<path fill="#B6ACE2" opacity="1.000000" stroke="none" 
	d="
M171.135956,353.989105 
	C166.244736,355.517395 164.058243,354.188019 164.007706,349.841309 
	C163.944122,344.372528 163.992386,338.902435 163.992386,333.377655 
	C161.763031,333.052399 159.552231,333.270294 158.059708,332.338135 
	C156.901886,331.614990 155.939804,329.323273 156.194000,327.974365 
	C156.414551,326.803986 158.421494,325.205078 159.712723,325.133850 
	C165.357391,324.822632 171.048950,324.738037 176.677536,325.169922 
	C178.201874,325.286926 179.565308,327.500824 181.002594,328.752258 
	C179.554871,330.166901 178.222977,331.740997 176.602692,332.918091 
	C175.950150,333.392120 174.665604,332.996185 173.743378,332.996185 
	C173.003586,340.054749 172.276688,346.990387 171.135956,353.989105 
z"/>
<path fill="#EBD6B5" opacity="1.000000" stroke="none" 
	d="
M209.792969,293.827515 
	C212.453842,300.575836 219.499374,300.457062 224.072128,303.879761 
	C225.421280,304.889587 226.669708,306.033997 227.992645,307.472748 
	C219.988068,307.887054 211.955170,307.945312 203.459778,307.923645 
	C202.556534,305.946198 202.532227,303.809326 201.603043,302.192474 
	C197.532150,295.108704 191.724609,288.816132 191.989426,279.448975 
	C192.386444,278.412201 192.789734,277.796082 193.472809,277.101868 
	C196.593796,284.859406 202.965012,289.327179 209.792969,293.827515 
z"/>
<path fill="#F7AE7F" opacity="1.000000" stroke="none" 
	d="
M348.187469,333.959381 
	C351.054840,343.089294 348.434265,351.270691 340.987885,353.272003 
	C336.188202,354.561890 330.827545,354.068787 325.753357,353.773224 
	C324.753265,353.714966 323.313477,350.975800 323.124023,349.350861 
	C322.723480,345.914978 323.014709,342.398468 323.471313,338.380981 
	C326.222565,337.563324 328.524689,337.279694 330.901947,337.448181 
	C330.977051,340.823364 330.977051,343.746460 330.977051,346.628754 
	C338.247772,347.287506 341.057220,344.492401 341.139435,336.801056 
	C343.607941,335.636963 345.897705,334.798157 348.187469,333.959381 
z"/>
<path fill="#C7A7D2" opacity="1.000000" stroke="none" 
	d="
M318.822113,333.970642 
	C318.873505,336.353943 318.924896,338.737244 318.523010,341.587341 
	C313.657410,343.393402 309.245087,344.732635 304.832794,346.071899 
	C303.501678,344.508667 302.170532,342.945435 300.030609,340.432343 
	C300.030609,344.245850 299.850372,347.113495 300.076263,349.948761 
	C300.358093,353.486206 298.076294,354.902069 295.415253,354.857086 
	C292.768341,354.812347 290.714844,353.352905 290.908386,349.810425 
	C291.214630,344.204834 290.997711,338.570679 291.342255,332.746704 
	C295.829590,332.682129 299.976837,332.819458 304.124084,332.956787 
	C306.311432,334.381744 308.498779,335.806671 310.686157,337.231628 
	C310.355469,337.714661 310.024780,338.197723 309.694122,338.680756 
	C309.802277,338.011658 309.910431,337.342560 310.474670,336.322693 
	C313.561188,335.304840 316.191650,334.637756 318.822113,333.970642 
z"/>
<path fill="#B6ACE2" opacity="1.000000" stroke="none" 
	d="
M184.924042,351.144562 
	C179.657166,346.430237 178.403198,338.206024 181.985199,331.869843 
	C185.322327,325.966827 191.085175,323.797302 198.290665,325.731384 
	C205.841125,327.758087 208.324860,330.172119 208.739410,336.693573 
	C206.368423,337.825073 204.269302,338.413940 202.091431,338.635010 
	C200.509293,334.410065 198.080002,331.713715 193.570160,332.876709 
	C187.508667,334.439789 186.353073,339.135315 189.816650,346.112244 
	C187.988541,347.896149 186.456284,349.520355 184.924042,351.144562 
z"/>
<path fill="#F0CACE" opacity="1.000000" stroke="none" 
	d="
M346.435608,290.900391 
	C345.931885,289.397644 344.997009,287.291718 345.680359,286.184418 
	C354.470428,271.940521 355.208221,257.364899 348.156616,242.266556 
	C346.936218,239.653580 345.985504,236.914642 344.584473,234.120697 
	C344.230286,231.058563 344.201843,228.109604 344.531952,225.129852 
	C349.709930,232.011597 354.254364,238.906189 356.210754,247.441330 
	C359.473846,261.676788 357.383575,274.715210 349.581726,286.935760 
	C348.730652,288.268829 347.702576,289.488892 346.435608,290.900391 
z"/>
<path fill="#C7A7D2" opacity="1.000000" stroke="none" 
	d="
M219.175934,346.005707 
	C217.106415,343.251343 215.036896,340.496948 213.275238,337.326233 
	C215.406982,334.894867 217.230896,332.879791 219.054794,330.864746 
	C220.162445,332.565125 221.270096,334.265533 223.268967,337.334045 
	C224.778625,334.007812 226.090729,331.666626 226.912918,329.164459 
	C227.913834,326.118378 229.549988,324.088165 232.893768,325.090027 
	C236.298996,326.110321 236.936630,329.062836 235.574829,331.838196 
	C233.666992,335.726410 231.116043,339.299042 228.097961,343.023315 
	C224.629120,344.028534 221.902527,345.017120 219.175934,346.005707 
z"/>
<path fill="#D6D6E5" opacity="1.000000" stroke="none" 
	d="
M160.006119,243.980194 
	C158.997223,246.872635 157.725693,249.705185 157.048950,252.673340 
	C156.280899,256.041992 154.832947,256.294006 152.147034,254.120239 
	C152.088715,252.230576 151.670456,250.175949 152.505508,249.054916 
	C156.371246,243.865219 154.953552,238.862915 153.076782,233.439880 
	C149.617935,223.445282 150.431564,213.310852 153.765610,203.337265 
	C155.209702,204.611359 156.099594,205.809540 156.989487,207.007706 
	C156.987152,207.450668 156.984818,207.893646 156.921097,209.021393 
	C156.559097,212.151886 156.258484,214.597580 155.893585,217.424957 
	C156.292007,223.125458 156.528671,228.477234 157.297623,233.751419 
	C157.803162,237.218933 159.076569,240.574493 160.006119,243.980194 
z"/>
<path fill="#C7A7D2" opacity="1.000000" stroke="none" 
	d="
M185.078369,351.480286 
	C186.456284,349.520355 187.988541,347.896149 190.217773,346.131653 
	C197.807877,348.614380 201.445618,346.355682 202.170166,339.002808 
	C204.269302,338.413940 206.368423,337.825073 208.799316,337.083618 
	C211.375549,342.003326 209.513168,346.291260 206.354691,350.158600 
	C202.828278,354.476440 197.924850,355.637970 192.708481,354.795380 
	C190.123581,354.377869 187.718933,352.844513 185.078369,351.480286 
z"/>
<path fill="#EDB98D" opacity="1.000000" stroke="none" 
	d="
M242.006592,353.847717 
	C240.670990,352.396881 238.281174,351.014130 238.182281,349.483398 
	C237.754425,342.861237 237.705841,336.173950 238.202286,329.561646 
	C238.324097,327.939270 241.022446,326.510315 242.536240,324.992432 
	C244.033310,326.519714 246.652420,327.932983 246.821381,329.595245 
	C247.373322,335.025391 247.032196,340.546295 246.770630,346.388672 
	C240.901138,346.511444 242.504990,350.845551 242.006592,353.847717 
z"/>
<path fill="#EDB98D" opacity="1.000000" stroke="none" 
	d="
M348.108032,333.609619 
	C345.897705,334.798157 343.607941,335.636963 340.803497,336.636902 
	C338.414246,332.314270 334.807007,332.807709 331.120789,333.360016 
	C331.009949,334.730957 330.918396,335.863495 330.826843,336.996033 
	C328.524689,337.279694 326.222565,337.563324 323.546753,337.920959 
	C323.117767,337.166901 323.023285,336.339294 323.013123,335.510651 
	C322.889343,325.441406 325.384430,323.315430 335.604279,325.016968 
	C340.925537,325.902924 345.384399,328.256653 348.108032,333.609619 
z"/>
<path fill="#ABDBEC" opacity="1.000000" stroke="none" 
	d="
M157.293488,206.815094 
	C156.099594,205.809540 155.209702,204.611359 154.122009,203.153534 
	C156.434464,193.407196 162.184616,186.335007 170.603455,180.931763 
	C170.376862,182.673920 170.342804,185.100571 169.121811,186.162369 
	C163.561188,190.998016 160.739334,197.202286 158.961075,204.100510 
	C158.729553,204.998642 158.062714,205.784576 157.293488,206.815094 
z"/>
<path fill="#C9A9AC" opacity="1.000000" stroke="none" 
	d="
M304.979889,346.383240 
	C309.245087,344.732635 313.657410,343.393402 318.457550,342.029694 
	C318.902222,344.627136 319.402496,347.343903 318.868561,349.839417 
	C318.476532,351.671814 317.048676,353.762665 315.467957,354.683411 
	C314.495911,355.249634 312.006287,354.240631 310.835968,353.212677 
	C308.684509,351.322876 307.003876,348.897064 304.979889,346.383240 
z"/>
<path fill="#EDB98D" opacity="1.000000" stroke="none" 
	d="
M283.823425,334.662598 
	C281.904846,336.842377 279.961395,338.653717 277.668884,340.651306 
	C276.251495,338.243164 275.183167,335.648743 274.114838,333.054352 
	C272.267883,331.702820 270.420929,330.351288 268.202087,328.980347 
	C269.881622,327.637695 271.773071,325.777466 274.019379,325.108276 
	C278.102966,323.891724 280.062866,327.244049 281.974365,330.004822 
	C282.840546,331.255859 283.205963,332.853638 283.823425,334.662598 
z"/>
<path fill="#F7AE7F" opacity="1.000000" stroke="none" 
	d="
M242.349884,353.995483 
	C242.504990,350.845551 240.901138,346.511444 246.827209,346.851379 
	C249.474106,346.969208 251.801620,347.031616 254.126495,346.978607 
	C256.741760,346.919037 259.122375,346.736389 259.077698,350.620270 
	C259.030823,354.698486 256.301758,353.957245 253.899017,354.000946 
	C250.164108,354.068878 246.428482,354.097778 242.349884,353.995483 
z"/>
<path fill="#B6ACE2" opacity="1.000000" stroke="none" 
	d="
M304.061401,332.722229 
	C299.976837,332.819458 295.829590,332.682129 291.415527,332.284790 
	C291.935425,329.733246 292.722137,327.441681 293.508820,325.150146 
	C295.766510,326.036987 298.081482,326.806000 300.256073,327.863647 
	C301.244812,328.344574 301.955688,329.396759 303.016907,330.728088 
	C303.398712,331.562592 303.610413,331.813019 303.876251,332.017700 
	C303.876251,332.017700 303.998688,332.487640 304.061401,332.722229 
z"/>
<path fill="#E1B2AF" opacity="1.000000" stroke="none" 
	d="
M219.102905,346.431702 
	C221.902527,345.017120 224.629120,344.028534 227.734467,343.035889 
	C227.849518,345.764679 227.621368,348.501526 227.312439,351.229248 
	C226.978516,354.177582 224.913513,355.673798 222.420700,354.803833 
	C220.939423,354.286865 219.915573,351.970490 219.086563,350.268127 
	C218.635468,349.341797 219.021454,348.007812 219.102905,346.431702 
z"/>
<path fill="#B6ACE2" opacity="1.000000" stroke="none" 
	d="
M219.029602,330.469238 
	C217.230896,332.879791 215.406982,334.894867 213.225067,336.974060 
	C212.076324,335.378937 210.861191,333.780884 210.610550,332.043701 
	C210.343399,330.192078 210.442276,327.837036 211.416367,326.406616 
	C212.131561,325.356354 215.048096,324.600433 216.029602,325.221313 
	C217.468552,326.131683 218.054825,328.389862 219.029602,330.469238 
z"/>
<path fill="#B6ACE2" opacity="1.000000" stroke="none" 
	d="
M318.895599,333.557648 
	C316.191650,334.637756 313.561188,335.304840 310.549927,335.971130 
	C310.112122,334.166260 310.124664,332.356628 309.981842,330.559326 
	C309.764038,327.818146 310.469238,325.579468 313.454498,325.063568 
	C316.589325,324.521759 318.029144,326.561768 318.629791,329.276093 
	C318.907104,330.529297 318.865875,331.852936 318.895599,333.557648 
z"/>
<path fill="#D4D1CC" opacity="1.000000" stroke="none" 
	d="
M239.493896,307.893127 
	C244.037888,307.540863 249.043793,307.258362 254.512939,306.962402 
	C275.022552,306.994659 295.068909,307.040405 315.583313,307.109558 
	C314.870270,307.418182 313.689606,307.950256 312.508087,307.952209 
	C288.324066,307.992065 264.139923,307.971466 239.493896,307.893127 
z"/>
<path fill="#EDB98D" opacity="1.000000" stroke="none" 
	d="
M266.693085,330.942108 
	C266.738770,331.129303 266.519562,331.412354 266.064789,331.829651 
	C266.028900,331.655243 266.228516,331.346619 266.693085,330.942108 
z"/>
<path fill="#C7A7D2" opacity="1.000000" stroke="none" 
	d="
M303.926270,331.735046 
	C303.610413,331.813019 303.398712,331.562592 303.154724,331.034851 
	C303.370911,331.019714 303.673615,331.236084 303.926270,331.735046 
z"/>
<path fill="#D6D6E5" opacity="1.000000" stroke="none" 
	d="
M278.070740,156.659912 
	C277.860016,156.799530 277.550110,156.652115 277.074036,156.305084 
	C277.262421,156.194611 277.617004,156.283752 278.070740,156.659912 
z"/>
<path fill="#F8F5E5" opacity="1.000000" stroke="none" 
	d="
M254.869888,206.563217 
	C255.605072,207.718857 256.340240,208.874496 257.449524,210.505371 
	C258.902130,213.023254 259.980652,215.065872 261.059204,217.108490 
	C259.934357,221.987747 259.582245,226.500778 261.817627,231.553192 
	C262.980011,234.180405 261.462555,238.998642 259.582245,241.753098 
	C255.903992,247.141373 251.279099,251.930466 246.681458,256.609314 
	C245.602295,257.707550 243.032715,257.798187 241.215347,257.630707 
	C235.111069,257.068054 230.920563,259.469696 227.336166,264.420563 
	C225.774307,266.577881 222.306808,267.355530 219.081848,268.847412 
	C217.930206,269.049835 217.401489,269.164612 216.872757,269.279358 
	C208.849854,270.407410 200.996811,270.112457 192.911880,266.250031 
	C187.917145,261.650848 183.551056,257.295624 179.108810,252.558014 
	C177.952499,246.738922 176.872345,241.302200 175.813141,235.509415 
	C174.702515,234.150116 173.582886,233.133011 172.436951,232.146500 
	C169.959137,230.013351 166.879578,228.298996 165.094940,225.694672 
	C160.191711,218.539398 161.364166,209.682663 167.395279,203.838974 
	C173.457581,197.965073 181.955719,197.303879 189.350342,202.174667 
	C191.119034,203.339676 192.810547,205.392181 194.824860,202.049194 
	C202.395493,199.320374 209.637497,196.663666 217.281860,194.034317 
	C218.514099,192.905914 219.765671,191.862183 220.107315,190.576645 
	C222.887390,180.115982 232.577820,174.054001 241.984940,177.053589 
	C252.631042,180.448242 257.455383,190.784485 253.023163,201.281372 
	C251.839478,204.084641 252.131256,205.634933 254.980255,206.542984 
	C254.943848,206.520828 254.869888,206.563217 254.869888,206.563217 
M234.852493,252.403885 
	C244.008331,242.834137 239.748077,231.850113 231.346954,228.491470 
	C223.881210,225.506821 216.893646,227.707550 210.913040,232.679565 
	C205.447586,237.223297 203.918900,243.293961 206.209915,249.211151 
	C208.556641,255.272202 213.497772,258.741455 220.892090,257.774384 
	C225.480576,257.174316 229.802841,254.538620 234.852493,252.403885 
M247.018570,194.439163 
	C246.278519,188.065430 242.489197,184.072006 237.157928,184.047424 
	C232.022156,184.023743 228.346970,187.628510 227.709366,192.964325 
	C233.736893,194.767120 239.700684,196.550858 245.988647,198.431549 
	C246.218201,197.691238 246.598343,196.465271 247.018570,194.439163 
M172.917343,209.325409 
	C167.785980,215.887527 169.239655,222.363678 176.269989,225.013840 
	C179.477844,219.696823 182.663620,214.416382 185.920425,209.018234 
	C181.754456,206.014984 177.670273,205.777725 172.917343,209.325409 
M229.270508,219.581970 
	C229.824768,223.506989 231.809021,226.566971 235.983795,225.773071 
	C238.203583,225.350922 240.969284,223.068970 241.768768,220.971085 
	C243.108261,217.456192 241.195877,214.413101 237.315598,213.501923 
	C232.942596,212.474976 230.394257,214.645096 229.270508,219.581970 
M203.151154,236.777588 
	C203.828949,233.563400 203.354919,230.431839 200.051453,229.329727 
	C198.031143,228.655716 194.850143,228.785309 193.343613,229.992798 
	C191.811386,231.220871 190.848953,234.366348 191.212296,236.389267 
	C191.529846,238.157303 193.775925,240.228958 195.634689,240.924210 
	C198.748138,242.088760 201.397598,240.548065 203.151154,236.777588 
z"/>
<path fill="#ACD6C0" opacity="1.000000" stroke="none" 
	d="
M293.184998,194.792114 
	C305.434479,199.700485 317.322906,204.475784 329.206818,209.262390 
	C335.615509,211.843674 337.754028,216.382462 335.270355,222.823303 
	C332.277771,230.583694 329.135590,238.290695 325.863739,245.937576 
	C323.858826,250.623322 319.033051,252.798492 314.315308,250.928894 
	C298.851166,244.800476 283.425171,238.568970 268.088928,232.128433 
	C263.041016,230.008545 261.560364,224.937012 263.773590,219.424072 
	C266.623871,212.324295 269.525452,205.244858 272.447784,198.174362 
	C275.256744,191.378250 279.383301,189.550278 286.350525,192.031326 
	C288.542236,192.811783 290.666779,193.780945 293.184998,194.792114 
M290.398315,232.127045 
	C297.022308,234.792252 303.656494,237.432526 310.266876,240.131073 
	C314.983704,242.056641 319.500854,241.195221 322.617554,237.580032 
	C329.647156,229.426178 330.719055,219.287384 318.577209,214.261566 
	C308.912872,210.261230 299.232758,206.296646 289.513153,202.433105 
	C281.803680,199.368591 276.136505,202.331863 272.478851,211.135895 
	C269.534271,218.223572 271.985748,224.331436 279.110809,227.449753 
	C282.607910,228.980255 286.168427,230.365829 290.398315,232.127045 
z"/>
<path fill="#ACD6C0" opacity="1.000000" stroke="none" 
	d="
M253.210129,261.021179 
	C251.385437,260.950897 249.988037,260.849976 248.761795,260.761414 
	C253.636200,254.530594 258.195496,248.566193 262.975891,242.784607 
	C263.504211,242.145630 265.466766,242.129028 266.477051,242.536148 
	C282.824524,249.123672 299.177826,255.702698 315.413086,262.560059 
	C322.607635,265.598877 324.975159,273.817169 320.855560,280.047028 
	C320.300903,280.885803 319.304901,281.432739 318.108154,282.463898 
	C317.939880,278.860229 318.291626,275.839996 317.574768,273.099213 
	C315.715729,265.991058 307.571625,261.799957 300.478302,264.338013 
	C291.210541,267.654114 281.705048,268.656616 271.993378,267.956390 
	C270.186859,267.826141 268.070557,267.012115 266.769379,265.795044 
	C263.001129,262.270416 258.774780,260.520203 253.210129,261.021179 
z"/>
<path fill="#F8F5E5" opacity="1.000000" stroke="none" 
	d="
M219.009338,271.674774 
	C221.125214,271.367371 223.241074,271.059937 225.610733,270.715668 
	C226.119278,277.481201 229.831039,281.629211 236.045258,283.920624 
	C243.491257,286.666168 250.851105,289.645386 258.115692,292.471863 
	C242.318359,304.357666 198.640930,294.700073 196.175018,272.128082 
	C202.824631,272.128082 209.510529,272.128082 216.937790,272.052612 
	C218.122543,271.876373 218.565948,271.775574 219.009338,271.674774 
z"/>
<path fill="#ACD6C0" opacity="1.000000" stroke="none" 
	d="
M292.484985,282.273376 
	C293.815521,284.413147 294.976624,286.210358 296.132324,287.999237 
	C286.844543,292.949371 261.440796,291.305511 246.150604,284.712036 
	C248.326462,282.220520 251.102219,279.992706 252.561310,277.100647 
	C253.985123,274.278503 254.063721,270.777679 254.802155,267.243256 
	C266.873108,271.478241 279.498871,272.297791 291.482971,270.060547 
	C291.779388,274.286377 292.047455,278.108582 292.484985,282.273376 
z"/>
<path fill="#C1CFDD" opacity="1.000000" stroke="none" 
	d="
M284.032135,169.969849 
	C285.725098,171.703186 287.635040,173.275208 289.067566,175.202164 
	C292.430695,179.726151 296.324249,182.208176 302.411438,182.187149 
	C310.133118,182.160461 317.934418,183.249542 323.763550,189.973694 
	C320.046661,193.452057 316.391937,196.292465 312.737213,199.132874 
	C305.397827,196.250534 298.129791,193.163544 290.689362,190.571198 
	C286.900543,189.251144 282.801880,188.820297 278.348694,187.649521 
	C277.230042,185.552246 276.606018,183.792938 276.010101,181.622894 
	C275.931641,179.853653 275.825073,178.495148 276.096344,177.053894 
	C279.650665,175.346802 283.771912,174.742325 284.032135,169.969849 
z"/>
<path fill="#C9A9AC" opacity="1.000000" stroke="none" 
	d="
M323.548492,281.907349 
	C323.818756,288.203735 319.179871,291.457977 314.132812,292.880432 
	C305.743683,295.244781 297.056091,296.801971 288.391815,297.863678 
	C280.525787,298.827667 272.489990,298.351166 264.594788,299.155273 
	C260.555237,299.566711 256.715088,301.695465 252.672638,302.433289 
	C250.984848,302.741302 249.005280,301.450562 247.068268,300.538696 
	C252.154556,298.053528 257.225952,295.580994 262.549622,293.914246 
	C265.412720,293.017883 268.731476,293.192749 271.805389,293.418671 
	C287.252655,294.553925 302.193146,291.858795 316.833282,287.364746 
	C319.288055,286.611206 321.147644,283.918945 323.548492,281.907349 
z"/>
<path fill="#A3A0A2" opacity="1.000000" stroke="none" 
	d="
M250.954010,270.994629 
	C249.193558,281.132263 242.626419,284.443207 234.534012,279.678497 
	C229.627045,276.789337 227.728180,271.805267 229.710999,267.019318 
	C231.841766,261.876343 236.616821,259.610962 242.225616,261.254181 
	C246.922775,262.630341 250.847885,264.859192 250.954010,270.994629 
z"/>
<path fill="#D4D1CC" opacity="1.000000" stroke="none" 
	d="
M313.006531,199.377319 
	C316.391937,196.292465 320.046661,193.452057 323.849243,190.305939 
	C328.168213,191.586197 333.880676,199.255859 333.674591,203.357285 
	C333.627930,204.286179 332.503174,205.160889 331.486633,206.245148 
	C325.157654,204.160400 319.216766,201.891083 313.006531,199.377319 
z"/>
<path fill="#EDB98D" opacity="1.000000" stroke="none" 
	d="
M294.828278,274.053650 
	C297.901672,267.988159 302.083954,265.661194 307.197083,266.867645 
	C311.932617,267.985046 315.043427,271.980164 315.071503,276.980713 
	C315.099182,281.909851 312.039825,285.783905 307.358643,287.295593 
	C300.539276,289.497803 291.978760,281.764099 294.828278,274.053650 
M297.481812,279.682434 
	C299.144653,283.114960 301.937286,285.759613 305.622742,284.580597 
	C308.164795,283.767334 311.128296,281.083710 311.824677,278.642883 
	C312.442169,276.478607 310.875214,272.674988 309.004791,271.120117 
	C307.336487,269.733215 303.630890,269.591156 301.365814,270.405640 
	C297.812012,271.683472 296.394958,275.017120 297.481812,279.682434 
z"/>
<path fill="#C9A9AC" opacity="1.000000" stroke="none" 
	d="
M317.054871,259.808899 
	C311.558685,257.574799 306.062531,255.340668 300.566345,253.106552 
	C300.575165,252.476776 300.583984,251.847015 300.592804,251.217239 
	C301.962341,250.966064 303.475922,250.216888 304.672699,250.563019 
	C307.535004,251.390884 310.161469,253.154861 313.046326,253.750015 
	C315.850250,254.328476 319.648773,255.074112 321.618988,253.720642 
	C326.488281,250.375595 331.942261,249.064209 337.645935,247.492584 
	C338.229309,251.137604 335.938110,252.022095 333.275269,253.025009 
	C327.794250,255.089264 322.453400,257.525635 317.054871,259.808899 
z"/>
<path fill="#E1B2AF" opacity="1.000000" stroke="none" 
	d="
M317.328247,260.002991 
	C322.453400,257.525635 327.794250,255.089264 333.275269,253.025009 
	C335.938110,252.022095 338.229309,251.137604 337.996368,247.357056 
	C339.522614,244.158798 341.052917,241.352234 342.801392,238.276611 
	C343.630310,238.836060 344.936523,239.904785 344.745941,240.456512 
	C342.447174,247.111679 341.972137,254.845856 333.098145,257.339233 
	C329.492676,258.352295 326.442535,261.341705 323.040497,263.770081 
	C321.161377,262.804565 319.381531,261.500824 317.328247,260.002991 
z"/>
<path fill="#C1CFDD" opacity="1.000000" stroke="none" 
	d="
M269.330872,182.950760 
	C267.120605,189.410736 265.192078,196.051224 258.306366,199.853241 
	C258.014008,200.003189 258.047211,200.025970 257.906677,199.587616 
	C257.214661,194.433975 256.663147,189.718658 256.507629,185.001755 
	C260.768127,183.332138 264.632599,181.664108 268.612518,180.362732 
	C268.928925,181.469849 269.129883,182.210312 269.330872,182.950760 
z"/>
<path fill="#D4D1CC" opacity="1.000000" stroke="none" 
	d="
M179.184967,252.940399 
	C183.551056,257.295624 187.917145,261.650848 192.527863,266.167236 
	C192.822128,268.906860 192.871796,271.485229 192.919983,274.536774 
	C185.854355,269.456024 178.938324,263.779388 176.378860,254.309616 
	C177.498199,253.579102 178.341583,253.259750 179.184967,252.940399 
z"/>
<path fill="#EDB98D" opacity="1.000000" stroke="none" 
	d="
M338.019043,227.225983 
	C338.889191,227.680725 339.546661,228.012558 339.855896,228.546204 
	C343.401978,234.665344 337.178894,245.596603 329.188141,245.622986 
	C332.113129,239.249619 334.878876,233.223221 338.019043,227.225983 
z"/>
<path fill="#EDB98D" opacity="1.000000" stroke="none" 
	d="
M261.323608,216.869308 
	C259.980652,215.065872 258.902130,213.023254 257.793884,210.639771 
	C259.021057,207.247086 259.811340,203.852432 261.708221,201.270844 
	C262.862885,199.699432 265.723938,199.381882 267.818512,198.501114 
	C268.073761,198.882355 268.329010,199.263611 268.584290,199.644867 
	C266.252197,205.306625 263.920135,210.968384 261.323608,216.869308 
z"/>
<path fill="#A3A0A2" opacity="1.000000" stroke="none" 
	d="
M287.270447,247.655121 
	C284.894348,246.737640 282.781616,246.149200 280.887268,245.147720 
	C280.132324,244.748596 279.860016,243.436432 279.368011,242.539917 
	C280.336517,242.134567 281.515839,241.152573 282.239502,241.417084 
	C287.076447,243.185211 291.843140,245.158325 296.556335,247.237762 
	C297.201080,247.522217 297.422363,248.766373 297.839691,249.566193 
	C296.899841,249.974136 295.806427,250.912659 295.048187,250.693176 
	C292.508057,249.957886 290.087646,248.809006 287.270447,247.655121 
z"/>
<path fill="#ACD6C0" opacity="1.000000" stroke="none" 
	d="
M275.981995,182.033630 
	C276.606018,183.792938 277.230042,185.552246 277.905884,187.671234 
	C274.978058,190.484085 271.998413,192.937241 267.773987,196.415222 
	C269.440857,191.794220 270.705505,188.288223 272.341797,184.345703 
	C273.802948,183.284012 274.892487,182.658813 275.981995,182.033630 
z"/>
<path fill="#C9A9AC" opacity="1.000000" stroke="none" 
	d="
M274.044861,238.012939 
	C275.009613,239.379608 275.631470,240.582474 276.253357,241.785324 
	C275.844757,242.108505 275.436188,242.431671 275.027618,242.754837 
	C271.685791,240.423950 265.877289,241.608383 264.669373,234.329880 
	C268.286713,235.739243 270.994354,236.794174 274.044861,238.012939 
z"/>
<path fill="#EDB98D" opacity="1.000000" stroke="none" 
	d="
M276.010132,181.622894 
	C274.892487,182.658813 273.802948,183.284012 272.406067,183.980652 
	C271.361938,183.744003 270.625183,183.435883 269.609619,183.039246 
	C269.129883,182.210312 268.928925,181.469849 268.746033,179.995956 
	C270.047913,175.170380 272.682739,175.497742 275.718506,177.136642 
	C275.825073,178.495148 275.931641,179.853653 276.010132,181.622894 
z"/>
<path fill="#6C6A75" opacity="1.000000" stroke="none" 
	d="
M219.007401,271.344604 
	C218.565948,271.775574 218.122543,271.876373 217.338150,271.937286 
	C216.972809,271.316467 216.948486,270.735535 216.898468,269.716980 
	C217.401489,269.164612 217.930206,269.049835 218.729858,268.984039 
	C219.002335,269.693481 219.003906,270.353973 219.007401,271.344604 
z"/>
<path fill="#6C6A75" opacity="1.000000" stroke="none" 
	d="
M255.542084,263.958191 
	C255.842499,263.839355 256.139160,263.907684 256.435822,263.975983 
	C256.136658,264.032410 255.837509,264.088867 255.542084,263.958191 
z"/>
<path fill="#C1CFDD" opacity="1.000000" stroke="none" 
	d="
M255.127106,206.414856 
	C254.869888,206.563217 254.943848,206.520828 254.951981,206.177155 
	C255.318375,205.228455 255.676636,204.623413 256.015686,204.006683 
	C255.996475,203.995026 255.958176,203.971359 255.958176,203.971359 
	C255.766891,204.736404 255.575623,205.501450 255.127106,206.414856 
z"/>
<path fill="#6C6A75" opacity="1.000000" stroke="none" 
	d="
M261.359497,266.813995 
	C261.277161,266.577118 261.334503,266.358032 261.456696,266.184692 
	C261.487457,266.141052 261.725800,266.243744 261.868774,266.279175 
	C261.753571,266.469025 261.638367,266.658875 261.359497,266.813995 
z"/>
<path fill="#C1CFDD" opacity="1.000000" stroke="none" 
	d="
M257.998901,199.989731 
	C257.792572,200.510178 257.601410,201.044098 257.206116,201.784760 
	C257.001984,201.991486 257.035645,202.024124 257.048218,201.713531 
	C257.389618,200.943939 257.718414,200.484955 258.047211,200.025970 
	C258.047211,200.025970 258.014008,200.003189 257.998901,199.989731 
z"/>
<path fill="#C1CFDD" opacity="1.000000" stroke="none" 
	d="
M256.987244,201.973267 
	C256.821045,202.544846 256.669617,203.134628 256.238190,203.847885 
	C255.958176,203.971359 255.996475,203.995026 256.013672,203.700256 
	C256.365784,202.945023 256.700714,202.484573 257.035645,202.024124 
	C257.035645,202.024124 257.001984,201.991486 256.987244,201.973267 
z"/>
<path fill="#A5D4E3" opacity="1.000000" stroke="none" 
	d="
M216.879517,194.006943 
	C209.637497,196.663666 202.395493,199.320374 194.547668,201.813965 
	C191.629181,200.098526 189.316513,198.546204 187.003845,196.993896 
	C192.783188,192.684174 198.418137,188.158997 204.399475,184.150726 
	C207.653290,181.970230 211.393616,180.372650 215.113373,179.087967 
	C217.118530,178.395432 219.542908,178.916718 221.985748,179.358093 
	C220.422073,184.552872 218.650787,189.279907 216.879517,194.006943 
z"/>
<path fill="#A5D4E3" opacity="1.000000" stroke="none" 
	d="
M250.994522,155.394089 
	C257.082062,156.299896 263.167816,157.584183 269.619812,159.320129 
	C269.038879,161.319946 268.449890,163.393127 267.082794,164.325760 
	C261.007965,168.470078 254.710220,172.287628 248.159225,176.124420 
	C243.885284,175.000000 239.945190,173.974472 236.005127,172.948944 
	C238.459778,170.238251 240.628113,167.170654 243.444656,164.910995 
	C246.659119,162.332031 250.733658,160.710999 250.994522,155.394089 
z"/>
<path fill="#6C6A75" opacity="1.000000" stroke="none" 
	d="
M235.634308,173.039673 
	C239.945190,173.974472 243.885284,175.000000 248.380676,176.392441 
	C251.327896,179.507355 253.719788,182.255356 256.111664,185.003357 
	C256.663147,189.718658 257.214661,194.433975 257.906677,199.587616 
	C257.718414,200.484955 257.389618,200.943939 257.048218,201.713531 
	C256.700714,202.484573 256.365784,202.945023 256.032867,203.711914 
	C255.676636,204.623413 255.318375,205.228455 254.988403,206.199310 
	C252.131256,205.634933 251.839478,204.084641 253.023163,201.281372 
	C257.455383,190.784485 252.631042,180.448242 241.984940,177.053589 
	C232.577820,174.054001 222.887390,180.115982 220.107315,190.576645 
	C219.765671,191.862183 218.514099,192.905914 217.281860,194.034317 
	C218.650787,189.279907 220.422073,184.552872 222.370575,179.514786 
	C226.786362,177.179276 231.024933,175.154846 235.634308,173.039673 
z"/>
<path fill="#6C6A75" opacity="1.000000" stroke="none" 
	d="
M186.731369,196.984406 
	C189.316513,198.546204 191.629181,200.098526 194.219055,201.886078 
	C192.810547,205.392181 191.119034,203.339676 189.350342,202.174667 
	C181.955719,197.303879 173.457581,197.965073 167.395279,203.838974 
	C161.364166,209.682663 160.191711,218.539398 165.094940,225.694672 
	C166.879578,228.298996 169.959137,230.013351 172.436951,232.146500 
	C173.582886,233.133011 174.702515,234.150116 175.442444,235.578369 
	C165.054474,234.169891 160.673874,227.218079 158.740143,217.691864 
	C159.158524,214.545624 159.541382,211.776031 159.924225,209.006454 
	C164.876114,199.239075 172.657730,194.675980 184.298065,196.298752 
	C185.253769,196.607086 185.598450,196.702545 185.943130,196.797989 
	C186.115067,196.856979 186.286987,196.915955 186.731369,196.984406 
z"/>
<path fill="#ABDBEC" opacity="1.000000" stroke="none" 
	d="
M159.558487,209.004288 
	C159.541382,211.776031 159.158524,214.545624 158.312408,217.669006 
	C157.564697,218.025513 157.280243,218.028198 156.863739,217.826294 
	C156.522018,217.364304 156.264084,217.171494 155.957870,217.043274 
	C156.258484,214.597580 156.559097,212.151886 156.928314,209.353561 
	C157.728851,209.001328 158.460800,209.001724 159.558487,209.004288 
z"/>
<path fill="#A5D4E3" opacity="1.000000" stroke="none" 
	d="
M185.743759,196.624237 
	C185.598450,196.702545 185.253769,196.607086 184.727448,196.303131 
	C184.878677,196.213257 185.211533,196.331879 185.743759,196.624237 
z"/>
<path fill="#ACD6C0" opacity="1.000000" stroke="none" 
	d="
M156.995804,218.030899 
	C157.280243,218.028198 157.564697,218.025513 158.276886,218.045670 
	C160.673874,227.218079 165.054474,234.169891 175.421509,235.934448 
	C176.872345,241.302200 177.952499,246.738922 179.108810,252.558014 
	C178.341583,253.259750 177.498199,253.579102 176.323151,253.954224 
	C175.035141,251.573883 174.078827,249.137772 172.898285,246.051514 
	C171.691483,244.540695 170.775040,243.586945 169.715851,242.834061 
	C161.173584,236.762268 156.776764,228.585526 156.995804,218.030899 
z"/>
<path fill="#C1CFDD" opacity="1.000000" stroke="none" 
	d="
M156.863739,217.826294 
	C156.776764,228.585526 161.173584,236.762268 169.715851,242.834061 
	C170.775040,243.586945 171.691483,244.540695 172.839355,245.693451 
	C168.922379,245.370880 164.840088,244.756226 160.381958,244.060883 
	C159.076569,240.574493 157.803162,237.218933 157.297623,233.751419 
	C156.528671,228.477234 156.292007,223.125458 155.893585,217.424957 
	C156.264084,217.171494 156.522018,217.364304 156.863739,217.826294 
z"/>
<path fill="#B5D2E2" opacity="1.000000" stroke="none" 
	d="
M256.507629,185.001755 
	C253.719788,182.255356 251.327896,179.507355 248.714539,176.491348 
	C254.710220,172.287628 261.007965,168.470078 267.082794,164.325760 
	C268.449890,163.393127 269.038879,161.319946 269.983887,159.389282 
	C272.408295,159.995285 274.834900,160.983826 277.630188,161.991516 
	C279.968903,164.440720 281.938965,166.870743 283.970581,169.635315 
	C283.771912,174.742325 279.650665,175.346802 276.096313,177.053894 
	C272.682739,175.497742 270.047913,175.170380 268.630615,179.629303 
	C264.632599,181.664108 260.768127,183.332138 256.507629,185.001755 
z"/>
<path fill="#000000" opacity="1.000000" stroke="none" 
	d="
M274.060791,333.276550 
	C275.183167,335.648743 276.251495,338.243164 277.646240,341.025269 
	C279.971283,343.578033 278.863708,344.944885 276.447266,345.820526 
	C274.791809,346.420380 273.102081,346.925598 270.166534,347.885529 
	C271.207184,343.480560 272.098877,339.706207 273.285278,335.440765 
	C273.673462,334.610413 273.766907,334.271179 273.860352,333.931946 
	C273.860352,333.931946 274.006775,333.498718 274.060791,333.276550 
z"/>
<path fill="#EDB98D" opacity="1.000000" stroke="none" 
	d="
M273.673828,334.100098 
	C273.766907,334.271179 273.673462,334.610413 273.307861,335.053619 
	C273.186249,334.861145 273.336731,334.564667 273.673828,334.100098 
z"/>
<path fill="#000000" opacity="1.000000" stroke="none" 
	d="
M330.901947,337.448151 
	C330.918396,335.863495 331.009949,334.730957 331.120789,333.360016 
	C334.807007,332.807709 338.414246,332.314270 340.624756,336.962219 
	C341.057220,344.492401 338.247772,347.287506 330.977051,346.628754 
	C330.977051,343.746460 330.977051,340.823364 330.901947,337.448151 
z"/>
<path fill="#000000" opacity="1.000000" stroke="none" 
	d="
M202.091431,338.635010 
	C201.445618,346.355682 197.807877,348.614380 190.513641,345.971924 
	C186.353073,339.135315 187.508667,334.439789 193.570160,332.876709 
	C198.080002,331.713715 200.509293,334.410065 202.091431,338.635010 
M199.489227,338.980408 
	C196.914352,337.806213 194.339478,336.632050 190.461075,334.863434 
	C191.114212,339.537537 191.506287,342.343353 191.966492,345.636688 
	C194.256470,344.247009 195.565308,343.608307 196.686356,342.729919 
	C197.870728,341.801849 198.876175,340.645416 199.489227,338.980408 
z"/>
<path fill="#EBD6B5" opacity="1.000000" stroke="none" 
	d="
M234.548553,252.610260 
	C229.802841,254.538620 225.480576,257.174316 220.892090,257.774384 
	C213.497772,258.741455 208.556641,255.272202 206.209915,249.211151 
	C203.918900,243.293961 205.447586,237.223297 210.913040,232.679565 
	C216.893646,227.707550 223.881210,225.506821 231.346954,228.491470 
	C239.748077,231.850113 244.008331,242.834137 234.548553,252.610260 
M224.281616,242.674286 
	C224.573166,241.094696 224.639969,239.428711 225.206543,237.954834 
	C226.165939,235.459076 227.032791,231.970535 223.868835,231.948456 
	C220.577148,231.925522 216.035858,233.683578 214.278748,236.215698 
	C212.114487,239.334564 215.984680,240.432785 218.760208,241.493561 
	C219.903168,241.930359 220.755020,244.217529 220.862610,245.725632 
	C220.904205,246.308624 218.576920,247.269119 217.214767,247.668381 
	C216.347473,247.922577 215.270493,247.461380 213.836258,247.256516 
	C216.427658,251.708923 218.905228,252.078812 222.442856,249.496613 
	C223.701813,248.577637 225.442184,247.969711 227.001770,247.877258 
	C231.450867,247.613586 233.449554,244.943787 231.660583,240.748978 
	C229.645203,242.403458 228.396652,246.600357 224.281616,242.674286 
z"/>
<path fill="#696773" opacity="1.000000" stroke="none" 
	d="
M246.998520,194.839233 
	C246.598343,196.465271 246.218201,197.691238 245.988647,198.431549 
	C239.700684,196.550858 233.736893,194.767120 227.709366,192.964325 
	C228.346970,187.628510 232.022156,184.023743 237.157928,184.047424 
	C242.489197,184.072006 246.278519,188.065430 246.998520,194.839233 
z"/>
<path fill="#696773" opacity="1.000000" stroke="none" 
	d="
M173.210876,209.057495 
	C177.670273,205.777725 181.754456,206.014984 185.920425,209.018234 
	C182.663620,214.416382 179.477844,219.696823 176.269989,225.013840 
	C169.239655,222.363678 167.785980,215.887527 173.210876,209.057495 
z"/>
<path fill="#6C6A75" opacity="1.000000" stroke="none" 
	d="
M229.314133,219.209717 
	C230.394257,214.645096 232.942596,212.474976 237.315598,213.501923 
	C241.195877,214.413101 243.108261,217.456192 241.768768,220.971085 
	C240.969284,223.068970 238.203583,225.350922 235.983795,225.773071 
	C231.809021,226.566971 229.824768,223.506989 229.314133,219.209717 
M236.274796,215.844086 
	C234.813705,217.068665 232.868958,218.061020 232.117416,219.626282 
	C231.793655,220.300537 233.771149,222.999054 235.013321,223.251389 
	C236.296082,223.511993 239.170258,221.956146 239.195892,221.128296 
	C239.248367,219.433456 237.859879,217.694016 236.274796,215.844086 
z"/>
<path fill="#6C6A75" opacity="1.000000" stroke="none" 
	d="
M203.053513,237.137207 
	C201.397598,240.548065 198.748138,242.088760 195.634689,240.924210 
	C193.775925,240.228958 191.529846,238.157303 191.212296,236.389267 
	C190.848953,234.366348 191.811386,231.220871 193.343613,229.992798 
	C194.850143,228.785309 198.031143,228.655716 200.051453,229.329727 
	C203.354919,230.431839 203.828949,233.563400 203.053513,237.137207 
M200.912857,233.761505 
	C199.065521,232.912460 197.268661,231.708939 195.339554,231.434296 
	C194.774063,231.353775 192.988724,234.135269 193.272064,235.205307 
	C193.648590,236.627304 196.111786,238.882889 196.613251,238.634018 
	C198.336639,237.778687 199.595810,235.988007 200.912857,233.761505 
z"/>
<path fill="#F8F5E5" opacity="1.000000" stroke="none" 
	d="
M290.049286,231.972015 
	C286.168427,230.365829 282.607910,228.980255 279.110809,227.449753 
	C271.985748,224.331436 269.534271,218.223572 272.478851,211.135895 
	C276.136505,202.331863 281.803680,199.368591 289.513153,202.433105 
	C299.232758,206.296646 308.912872,210.261230 318.577209,214.261566 
	C330.719055,219.287384 329.647156,229.426178 322.617554,237.580032 
	C319.500854,241.195221 314.983704,242.056641 310.266876,240.131073 
	C303.656494,237.432526 297.022308,234.792252 290.049286,231.972015 
M294.390656,220.741043 
	C293.917236,220.777939 293.033844,220.791183 293.030182,220.855194 
	C292.926422,222.652390 292.160248,225.158127 293.045258,226.103531 
	C294.674011,227.843399 297.187592,229.282974 299.517914,229.641296 
	C300.929504,229.858353 302.689545,227.809082 304.293030,226.778015 
	C303.570709,225.980194 302.848419,225.182373 301.870880,223.801224 
	C299.568420,222.866562 297.265991,221.931915 294.390656,220.741043 
M284.232086,221.954971 
	C287.893768,221.225693 290.631683,219.055634 290.574402,215.361084 
	C290.538483,213.042618 289.220276,209.673889 287.439117,208.724854 
	C285.237701,207.551849 281.384125,207.433014 279.318848,208.662918 
	C277.483948,209.755630 276.198364,213.355942 276.311768,215.772415 
	C276.492798,219.629639 279.360565,221.853378 284.232086,221.954971 
M322.937653,229.081131 
	C322.838989,222.441895 318.017670,218.037598 313.217255,220.757141 
	C310.901855,222.068863 308.727509,225.260132 308.309265,227.889786 
	C307.748230,231.417160 310.577301,234.051132 314.109314,234.806274 
	C318.237854,235.688965 321.036469,233.546524 322.937653,229.081131 
z"/>
<path fill="#6C6A75" opacity="1.000000" stroke="none" 
	d="
M297.339600,279.314362 
	C296.394958,275.017120 297.812012,271.683472 301.365814,270.405640 
	C303.630890,269.591156 307.336487,269.733215 309.004791,271.120117 
	C310.875214,272.674988 312.442169,276.478607 311.824677,278.642883 
	C311.128296,281.083710 308.164795,283.767334 305.622742,284.580597 
	C301.937286,285.759613 299.144653,283.114960 297.339600,279.314362 
M301.843048,280.688965 
	C304.504700,282.727264 307.159515,282.301971 308.464569,279.490204 
	C309.178314,277.952301 308.805664,274.957397 307.694061,273.809021 
	C306.701141,272.783264 303.610382,272.647125 302.172699,273.438965 
	C299.478790,274.922760 299.136475,277.574677 301.843048,280.688965 
z"/>
<path fill="#C7A7D2" opacity="1.000000" stroke="none" 
	d="
M199.724518,339.284607 
	C198.876175,340.645416 197.870728,341.801849 196.686356,342.729919 
	C195.565308,343.608307 194.256470,344.247009 191.966492,345.636688 
	C191.506287,342.343353 191.114212,339.537537 190.461075,334.863434 
	C194.339478,336.632050 196.914352,337.806213 199.724518,339.284607 
z"/>
<path fill="#696773" opacity="1.000000" stroke="none" 
	d="
M224.528534,242.970398 
	C228.396652,246.600357 229.645203,242.403458 231.660583,240.748978 
	C233.449554,244.943787 231.450867,247.613586 227.001770,247.877258 
	C225.442184,247.969711 223.701813,248.577637 222.442856,249.496613 
	C218.905228,252.078812 216.427658,251.708923 213.836258,247.256516 
	C215.270493,247.461380 216.347473,247.922577 217.214767,247.668381 
	C218.576920,247.269119 220.904205,246.308624 220.862610,245.725632 
	C220.755020,244.217529 219.903168,241.930359 218.760208,241.493561 
	C215.984680,240.432785 212.114487,239.334564 214.278748,236.215698 
	C216.035858,233.683578 220.577148,231.925522 223.868835,231.948456 
	C227.032791,231.970535 226.165939,235.459076 225.206543,237.954834 
	C224.639969,239.428711 224.573166,241.094696 224.528534,242.970398 
z"/>
<path fill="#D4D1CC" opacity="1.000000" stroke="none" 
	d="
M236.669769,215.908508 
	C237.859879,217.694016 239.248367,219.433456 239.195892,221.128296 
	C239.170258,221.956146 236.296082,223.511993 235.013321,223.251389 
	C233.771149,222.999054 231.793655,220.300537 232.117416,219.626282 
	C232.868958,218.061020 234.813705,217.068665 236.669769,215.908508 
z"/>
<path fill="#D4D1CC" opacity="1.000000" stroke="none" 
	d="
M200.972382,234.157654 
	C199.595810,235.988007 198.336639,237.778687 196.613251,238.634018 
	C196.111786,238.882889 193.648590,236.627304 193.272064,235.205307 
	C192.988724,234.135269 194.774063,231.353775 195.339554,231.434296 
	C197.268661,231.708939 199.065521,232.912460 200.972382,234.157654 
z"/>
<path fill="#6C6A75" opacity="1.000000" stroke="none" 
	d="
M283.837830,221.969772 
	C279.360565,221.853378 276.492798,219.629639 276.311768,215.772415 
	C276.198364,213.355942 277.483948,209.755630 279.318848,208.662918 
	C281.384125,207.433014 285.237701,207.551849 287.439117,208.724854 
	C289.220276,209.673889 290.538483,213.042618 290.574402,215.361084 
	C290.631683,219.055634 287.893768,221.225693 283.837830,221.969772 
M279.654053,216.669250 
	C281.486572,217.259079 283.759186,218.782471 285.030975,218.182907 
	C286.371521,217.550888 287.581787,214.741241 287.294708,213.166306 
	C287.069519,211.930984 284.421448,210.229401 282.945282,210.318451 
	C279.843445,210.505585 278.575989,212.832825 279.654053,216.669250 
z"/>
<path fill="#6C6A75" opacity="1.000000" stroke="none" 
	d="
M322.840942,229.464600 
	C321.036469,233.546524 318.237854,235.688965 314.109314,234.806274 
	C310.577301,234.051132 307.748230,231.417160 308.309265,227.889786 
	C308.727509,225.260132 310.901855,222.068863 313.217255,220.757141 
	C318.017670,218.037598 322.838989,222.441895 322.840942,229.464600 
M315.594727,231.930939 
	C319.209076,231.283920 321.168732,229.292068 319.437347,225.712097 
	C318.820770,224.437149 316.471680,223.152252 315.098999,223.327255 
	C313.702942,223.505249 311.341064,225.707260 311.516388,226.614166 
	C311.882294,228.506653 313.641388,230.129791 315.594727,231.930939 
z"/>
<path fill="#6C6A75" opacity="1.000000" stroke="none" 
	d="
M302.126099,224.384552 
	C302.848419,225.182373 303.570709,225.980194 304.293030,226.778015 
	C302.689545,227.809082 300.929504,229.858353 299.517914,229.641296 
	C297.187592,229.282974 294.674011,227.843399 293.045258,226.103531 
	C292.160248,225.158127 292.926422,222.652390 293.030182,220.855194 
	C293.033844,220.791183 293.917236,220.777939 294.686707,221.255554 
	C295.903931,223.322571 296.506500,225.412552 297.869141,226.220245 
	C298.650818,226.683563 300.666168,225.065567 302.126099,224.384552 
z"/>
<path fill="#ACD6C0" opacity="1.000000" stroke="none" 
	d="
M301.998474,224.092896 
	C300.666168,225.065567 298.650818,226.683563 297.869141,226.220245 
	C296.506500,225.412552 295.903931,223.322571 294.973145,221.383667 
	C297.265991,221.931915 299.568420,222.866562 301.998474,224.092896 
z"/>
<path fill="#EDB98D" opacity="1.000000" stroke="none" 
	d="
M301.562683,280.417236 
	C299.136475,277.574677 299.478790,274.922760 302.172699,273.438965 
	C303.610382,272.647125 306.701141,272.783264 307.694061,273.809021 
	C308.805664,274.957397 309.178314,277.952301 308.464569,279.490204 
	C307.159515,282.301971 304.504700,282.727264 301.562683,280.417236 
z"/>
<path fill="#F8F5E5" opacity="1.000000" stroke="none" 
	d="
M279.478394,216.327515 
	C278.575989,212.832825 279.843445,210.505585 282.945282,210.318451 
	C284.421448,210.229401 287.069519,211.930984 287.294708,213.166306 
	C287.581787,214.741241 286.371521,217.550888 285.030975,218.182907 
	C283.759186,218.782471 281.486572,217.259079 279.478394,216.327515 
z"/>
<path fill="#F8F5E5" opacity="1.000000" stroke="none" 
	d="
M315.211426,231.897263 
	C313.641388,230.129791 311.882294,228.506653 311.516388,226.614166 
	C311.341064,225.707260 313.702942,223.505249 315.098999,223.327255 
	C316.471680,223.152252 318.820770,224.437149 319.437347,225.712097 
	C321.168732,229.292068 319.209076,231.283920 315.211426,231.897263 
z"/>
</svg>